<svg xmlns="http://www.w3.org/2000/svg" xmlns:xlink="http://www.w3.org/1999/xlink" width="203" zoomAndPan="magnify" viewBox="0 0 152.25 52.499999" height="70" preserveAspectRatio="xMidYMid meet" version="1.0"><defs><filter x="0%" y="0%" width="100%" height="100%" id="3892a9e8fd"><feColorMatrix values="0 0 0 0 1 0 0 0 0 1 0 0 0 0 1 0 0 0 1 0" color-interpolation-filters="sRGB"/></filter><g/><clipPath id="0f82a5c623"><path d="M 33 14 L 56 14 L 56 52.003906 L 33 52.003906 Z M 33 14 " clip-rule="nonzero"/></clipPath><mask id="404fa0e770"><g filter="url(#3892a9e8fd)"><rect x="-15.225" width="182.7" fill="#000000" y="-5.25" height="62.999998" fill-opacity="0.3"/></g></mask><clipPath id="e00f9faefb"><path d="M 0.152344 0.863281 L 21.6875 0.863281 L 21.6875 38.003906 L 0.152344 38.003906 Z M 0.152344 0.863281 " clip-rule="nonzero"/></clipPath><clipPath id="972092f50c"><path d="M 0.308594 0.863281 L 21.6875 0.863281 L 21.6875 38 L 0.308594 38 Z M 0.308594 0.863281 " clip-rule="nonzero"/></clipPath><clipPath id="057ba0f241"><rect x="0" width="22" y="0" height="39"/></clipPath><clipPath id="c1675f60e4"><rect x="0" width="23" y="0" height="39"/></clipPath><clipPath id="2cd6035480"><path d="M 68 30 L 75 30 L 75 50.652344 L 68 50.652344 Z M 68 30 " clip-rule="nonzero"/></clipPath><clipPath id="36bc3b3e33"><path d="M 75 30 L 84 30 L 84 50.652344 L 75 50.652344 Z M 75 30 " clip-rule="nonzero"/></clipPath><clipPath id="de81695c5a"><path d="M 53.410156 1.617188 L 97.988281 1.617188 L 97.988281 50 L 53.410156 50 Z M 53.410156 1.617188 " clip-rule="nonzero"/></clipPath><clipPath id="481154d838"><path d="M 6 0.109375 L 10 0.109375 L 10 12 L 6 12 Z M 6 0.109375 " clip-rule="nonzero"/></clipPath><clipPath id="1a570e8cbf"><path d="M 17 0.109375 L 22 0.109375 L 22 10 L 17 10 Z M 17 0.109375 " clip-rule="nonzero"/></clipPath><clipPath id="ce40be2f8c"><path d="M 65 0.109375 L 70 0.109375 L 70 10 L 65 10 Z M 65 0.109375 " clip-rule="nonzero"/></clipPath><clipPath id="d91d61c953"><rect x="0" width="75" y="0" height="23"/></clipPath><clipPath id="209580a1dd"><path d="M 96 14 L 119 14 L 119 52.003906 L 96 52.003906 Z M 96 14 " clip-rule="nonzero"/></clipPath><mask id="fdf00bf66b"><g filter="url(#3892a9e8fd)"><rect x="-15.225" width="182.7" fill="#000000" y="-5.25" height="62.999998" fill-opacity="0.3"/></g></mask><clipPath id="fbb0d92f8d"><path d="M 0.652344 0.863281 L 22.199219 0.863281 L 22.199219 38 L 0.652344 38 Z M 0.652344 0.863281 " clip-rule="nonzero"/></clipPath><clipPath id="df06026318"><rect x="0" width="23" y="0" height="39"/></clipPath></defs><g clip-path="url(#0f82a5c623)"><g mask="url(#404fa0e770)"><g transform="matrix(1, 0, 0, 1, 33, 14)"><g clip-path="url(#c1675f60e4)"><g clip-path="url(#e00f9faefb)"><g><g clip-path="url(#057ba0f241)"><g clip-path="url(#972092f50c)"><path fill="#ff914d" d="M 13.757812 26.261719 C 13.304688 27.453125 13.710938 28.507812 14.226562 29.550781 C 14.691406 30.488281 15.175781 31.417969 15.539062 32.40625 C 15.894531 33.371094 16.078125 34.363281 15.890625 35.375 C 15.714844 36.300781 15.253906 37.082031 14.402344 37.574219 C 14.378906 37.585938 14.351562 37.59375 14.320312 37.613281 C 14.414062 37.664062 14.460938 37.625 14.507812 37.605469 C 15.214844 37.332031 15.90625 37.027344 16.523438 36.574219 C 16.617188 36.503906 16.707031 36.425781 16.804688 36.371094 C 17.640625 35.882812 18.347656 35.242188 18.957031 34.5 C 19.683594 33.621094 20.296875 32.675781 20.570312 31.550781 C 20.925781 30.074219 20.957031 28.59375 20.675781 27.101562 C 20.398438 25.640625 19.730469 24.347656 18.925781 23.121094 C 18.308594 22.179688 17.644531 21.269531 17.15625 20.25 C 16.640625 19.175781 16.472656 18.0625 16.734375 16.886719 C 16.808594 16.5625 16.890625 16.253906 17.046875 15.964844 C 17.144531 15.789062 17.101562 15.726562 16.90625 15.726562 C 16.648438 15.722656 16.4375 15.839844 16.234375 15.980469 C 15.199219 16.699219 14.734375 17.75 14.5 18.9375 C 14.347656 19.6875 14.347656 20.441406 14.429688 21.199219 C 14.46875 21.5625 14.503906 21.933594 14.46875 22.300781 C 14.449219 22.488281 14.394531 22.664062 14.300781 22.824219 C 14.148438 23.085938 13.898438 23.148438 13.664062 22.957031 C 13.402344 22.75 13.273438 22.464844 13.21875 22.132812 C 12.976562 20.6875 13.316406 19.296875 13.625 17.90625 C 13.867188 16.828125 14.007812 15.742188 14.011719 14.640625 C 14.011719 13.144531 13.460938 11.832031 12.644531 10.609375 C 12.410156 10.253906 12.152344 9.90625 11.886719 9.566406 C 11.402344 8.941406 10.964844 8.28125 10.554688 7.601562 C 9.984375 6.660156 9.746094 5.652344 9.886719 4.546875 C 9.972656 3.867188 10.132812 3.21875 10.480469 2.628906 C 10.851562 2.003906 11.382812 1.558594 12.085938 1.339844 C 12.226562 1.292969 12.449219 1.269531 12.410156 1.066406 C 12.367188 0.871094 12.144531 0.933594 12.011719 0.949219 C 11.148438 1.042969 10.40625 1.40625 9.757812 1.972656 C 9.425781 2.269531 9.132812 2.601562 8.871094 2.960938 C 8.304688 3.742188 7.824219 4.566406 7.570312 5.503906 C 7.34375 6.320312 7.296875 7.148438 7.355469 7.992188 C 7.460938 9.597656 7.925781 11.121094 8.359375 12.65625 C 8.503906 13.179688 8.664062 13.707031 8.6875 14.257812 C 8.703125 14.675781 8.660156 15.089844 8.453125 15.46875 C 8.226562 15.890625 7.847656 16.066406 7.386719 16.066406 C 6.96875 16.066406 6.742188 15.777344 6.582031 15.4375 C 6.292969 14.828125 6.019531 14.210938 6.0625 13.507812 C 6.085938 13.089844 6.15625 12.683594 6.273438 12.285156 C 6.289062 12.234375 6.34375 12.179688 6.289062 12.136719 C 6.242188 12.097656 6.183594 12.125 6.132812 12.148438 C 5.753906 12.304688 5.507812 12.601562 5.304688 12.9375 C 4.511719 14.238281 4.300781 15.679688 4.328125 17.167969 C 4.371094 19.351562 4.902344 21.441406 5.582031 23.503906 C 5.878906 24.410156 6.195312 25.308594 6.402344 26.242188 C 6.496094 26.671875 6.542969 27.101562 6.394531 27.535156 C 6.300781 27.820312 6.101562 27.988281 5.847656 28.109375 C 5.714844 28.167969 5.578125 28.152344 5.449219 28.089844 C 5.230469 27.984375 5.066406 27.8125 4.949219 27.597656 C 4.59375 26.949219 4.414062 26.238281 4.269531 25.527344 C 4.070312 24.515625 3.9375 23.496094 3.960938 22.460938 C 3.96875 21.949219 3.980469 21.4375 3.984375 20.925781 C 3.988281 20.839844 4.027344 20.734375 3.917969 20.691406 C 3.800781 20.644531 3.71875 20.714844 3.648438 20.796875 C 3.367188 21.109375 3.171875 21.480469 3.039062 21.875 C 2.722656 22.804688 2.570312 23.769531 2.550781 24.75 C 2.527344 25.785156 2.707031 26.796875 3.007812 27.789062 C 3.164062 28.300781 3.246094 28.824219 3.234375 29.359375 C 3.234375 29.585938 3.179688 29.792969 3.015625 29.960938 C 2.757812 30.222656 2.414062 30.21875 2.171875 29.941406 C 1.90625 29.632812 1.820312 29.242188 1.726562 28.859375 C 1.546875 28.136719 1.652344 27.4375 1.9375 26.761719 C 1.960938 26.710938 1.980469 26.660156 1.992188 26.609375 C 2.007812 26.550781 1.988281 26.5 1.945312 26.460938 C 1.890625 26.414062 1.84375 26.449219 1.796875 26.476562 C 1.621094 26.578125 1.492188 26.734375 1.382812 26.894531 C 1.144531 27.242188 0.878906 27.578125 0.695312 27.957031 C 0.234375 28.898438 0.144531 29.886719 0.304688 30.910156 C 0.613281 32.871094 1.59375 34.410156 3.167969 35.605469 C 4.402344 36.539062 5.75 37.246094 7.191406 37.796875 C 7.347656 37.855469 7.515625 37.890625 7.679688 37.929688 C 7.730469 37.941406 7.804688 37.992188 7.832031 37.898438 C 7.851562 37.824219 7.769531 37.828125 7.734375 37.808594 C 6.980469 37.394531 6.261719 36.921875 5.609375 36.359375 C 4.710938 35.589844 4.054688 34.660156 3.832031 33.472656 C 3.730469 32.9375 3.804688 32.40625 3.984375 31.902344 C 4.199219 31.300781 4.4375 30.707031 4.828125 30.1875 C 4.835938 30.175781 4.839844 30.164062 4.851562 30.15625 C 4.933594 30.082031 4.996094 29.921875 5.117188 29.988281 C 5.191406 30.027344 5.105469 30.167969 5.082031 30.261719 C 5.007812 30.554688 4.914062 30.847656 4.867188 31.144531 C 4.785156 31.671875 5.058594 32.050781 5.46875 32.304688 C 5.789062 32.503906 6.144531 32.4375 6.46875 32.234375 C 6.910156 31.960938 7.253906 31.585938 7.550781 31.164062 C 8.378906 29.988281 9.007812 28.714844 9.375 27.328125 C 9.820312 25.644531 9.820312 23.949219 9.410156 22.253906 C 9.296875 21.769531 9.152344 21.296875 8.996094 20.824219 C 8.980469 20.78125 8.964844 20.734375 8.949219 20.6875 C 8.925781 20.609375 8.945312 20.535156 9.019531 20.492188 C 9.085938 20.453125 9.152344 20.472656 9.207031 20.527344 C 9.285156 20.601562 9.363281 20.679688 9.425781 20.765625 C 10.234375 21.878906 10.851562 23.082031 11.117188 24.441406 C 11.222656 24.988281 11.199219 25.539062 11.128906 26.089844 C 11.082031 26.46875 11.03125 26.847656 10.957031 27.21875 C 10.875 27.609375 10.765625 27.996094 10.664062 28.378906 C 10.53125 28.878906 10.542969 29.375 10.691406 29.871094 C 10.792969 30.207031 10.957031 30.492188 11.339844 30.550781 C 11.75 30.613281 12.050781 30.414062 12.257812 30.097656 C 12.558594 29.640625 12.679688 29.132812 12.585938 28.582031 C 12.433594 27.699219 12.941406 26.683594 13.757812 26.261719 Z M 12.746094 12.296875 C 12.773438 12.304688 12.792969 12.304688 12.796875 12.316406 C 12.816406 12.347656 12.839844 12.382812 12.851562 12.421875 C 13.058594 13.25 13.230469 14.082031 13.273438 14.9375 C 13.308594 15.714844 13.160156 16.472656 12.96875 17.21875 C 12.820312 17.808594 12.597656 18.378906 12.578125 18.992188 C 12.574219 19.035156 12.570312 19.078125 12.515625 19.082031 C 12.4375 19.085938 12.457031 19.019531 12.457031 18.976562 C 12.457031 18.699219 12.472656 18.421875 12.488281 18.144531 C 12.523438 17.511719 12.625 16.890625 12.765625 16.28125 C 13.023438 15.160156 13.039062 14.039062 12.835938 12.910156 C 12.800781 12.710938 12.722656 12.511719 12.746094 12.296875 Z M 19.328125 25.691406 C 19.441406 25.714844 19.453125 25.796875 19.484375 25.859375 C 19.933594 26.761719 20.136719 27.714844 20.082031 28.726562 C 20.050781 29.253906 19.917969 29.738281 19.648438 30.1875 C 19.621094 30.234375 19.605469 30.332031 19.53125 30.296875 C 19.472656 30.273438 19.503906 30.195312 19.523438 30.136719 C 19.648438 29.691406 19.699219 29.234375 19.710938 28.773438 C 19.71875 28.449219 19.6875 28.132812 19.660156 27.8125 C 19.617188 27.382812 19.605469 26.949219 19.511719 26.523438 C 19.449219 26.25 19.390625 25.976562 19.328125 25.691406 Z M 14.277344 28.089844 C 14.390625 28.285156 14.46875 28.488281 14.59375 28.671875 C 14.976562 29.222656 15.347656 29.777344 15.628906 30.390625 C 15.964844 31.121094 16.253906 31.867188 16.296875 32.683594 C 16.300781 32.742188 16.332031 32.832031 16.253906 32.839844 C 16.164062 32.851562 16.1875 32.761719 16.183594 32.703125 C 16.164062 32.414062 16.089844 32.132812 15.988281 31.859375 C 15.628906 30.890625 15.113281 30 14.59375 29.113281 C 14.40625 28.796875 14.296875 28.457031 14.277344 28.089844 Z M 8.90625 22.289062 C 9.027344 22.476562 9.042969 22.640625 9.0625 22.808594 C 9.164062 23.53125 9.3125 24.246094 9.226562 24.988281 C 9.132812 25.753906 9.039062 26.511719 8.660156 27.203125 C 8.640625 27.242188 8.648438 27.335938 8.566406 27.304688 C 8.488281 27.277344 8.558594 27.207031 8.570312 27.167969 C 8.761719 26.636719 8.882812 26.09375 8.9375 25.53125 C 9.019531 24.667969 9.042969 23.808594 8.941406 22.945312 C 8.914062 22.75 8.863281 22.546875 8.90625 22.289062 Z M 7.984375 6.707031 C 7.984375 6.839844 8 6.957031 7.984375 7.0625 C 7.902344 7.515625 7.9375 7.957031 8.054688 8.394531 C 8.25 9.128906 8.464844 9.855469 8.664062 10.589844 C 8.683594 10.652344 8.777344 10.761719 8.683594 10.792969 C 8.59375 10.824219 8.589844 10.683594 8.554688 10.617188 C 8.449219 10.398438 8.359375 10.171875 8.25 9.953125 C 7.78125 9 7.726562 7.988281 7.828125 6.957031 C 7.839844 6.871094 7.867188 6.773438 7.984375 6.707031 Z M 1.074219 31.566406 C 1.148438 31.707031 1.21875 31.816406 1.265625 31.9375 C 1.46875 32.445312 1.683594 32.945312 1.992188 33.402344 C 2.167969 33.660156 2.3125 33.933594 2.53125 34.160156 C 2.554688 34.1875 2.601562 34.222656 2.5625 34.265625 C 2.527344 34.304688 2.488281 34.273438 2.453125 34.25 C 2.425781 34.230469 2.402344 34.207031 2.375 34.183594 C 1.796875 33.621094 1.386719 32.953125 1.125 32.191406 C 1.0625 32.003906 0.976562 31.808594 1.074219 31.566406 Z M 8.945312 20.019531 C 8.75 19.890625 8.695312 19.722656 8.601562 19.589844 C 8.277344 19.148438 7.96875 18.695312 7.777344 18.179688 C 7.75 18.105469 7.699219 18.035156 7.769531 17.933594 C 8.214844 18.589844 8.675781 19.21875 8.945312 20.019531 Z M 12.496094 20.539062 C 12.496094 20.644531 12.492188 20.746094 12.496094 20.847656 C 12.496094 20.902344 12.476562 20.953125 12.429688 20.960938 C 12.359375 20.96875 12.339844 20.898438 12.335938 20.851562 C 12.332031 20.707031 12.316406 20.5625 12.339844 20.421875 C 12.355469 20.339844 12.339844 20.171875 12.429688 20.179688 C 12.554688 20.195312 12.472656 20.347656 12.496094 20.4375 C 12.5 20.472656 12.496094 20.507812 12.496094 20.539062 Z M 21.632812 33.308594 C 21.425781 34.109375 20.960938 34.703125 20.242188 35.105469 C 19.992188 35.246094 19.761719 35.417969 19.527344 35.582031 C 18.925781 35.996094 18.34375 36.445312 17.707031 36.808594 C 17.660156 36.835938 17.597656 36.90625 17.550781 36.828125 C 17.507812 36.761719 17.589844 36.738281 17.628906 36.710938 C 18.183594 36.285156 18.722656 35.832031 19.21875 35.335938 C 19.863281 34.699219 20.460938 34.015625 20.890625 33.207031 C 21.339844 32.359375 21.519531 31.4375 21.59375 30.492188 C 21.613281 30.25 21.648438 30.007812 21.671875 29.761719 C 21.679688 29.710938 21.699219 29.664062 21.753906 29.664062 C 21.8125 29.664062 21.832031 29.710938 21.835938 29.761719 C 21.835938 29.804688 21.835938 29.84375 21.832031 29.886719 C 21.78125 30.261719 21.753906 30.644531 21.753906 31.023438 C 21.757812 31.414062 21.753906 31.800781 21.753906 32.1875 C 21.851562 32.578125 21.726562 32.9375 21.632812 33.308594 Z M 17.78125 16.90625 C 17.785156 16.84375 17.796875 16.765625 17.871094 16.769531 C 17.953125 16.769531 17.945312 16.851562 17.945312 16.910156 C 17.941406 17.644531 18.160156 18.339844 18.347656 19.035156 C 18.5 19.613281 18.84375 20.101562 19.09375 20.632812 C 19.300781 21.074219 19.464844 21.539062 19.792969 21.914062 C 20.125 22.292969 20.394531 22.722656 20.761719 23.070312 C 20.808594 23.113281 20.878906 23.160156 20.832031 23.242188 C 20.777344 23.332031 20.699219 23.28125 20.632812 23.257812 C 20.375 23.171875 20.15625 23.023438 19.988281 22.8125 C 19.777344 22.554688 19.546875 22.3125 19.316406 22.070312 C 19.132812 21.878906 18.964844 21.671875 18.828125 21.445312 C 18.089844 20.203125 17.839844 18.835938 17.78125 17.417969 C 17.78125 17.246094 17.78125 17.078125 17.78125 16.90625 Z M 13.386719 37.527344 C 13.808594 37.289062 14.019531 36.882812 14.242188 36.480469 C 14.5625 35.898438 14.761719 35.273438 14.78125 34.605469 C 14.8125 33.652344 14.628906 32.726562 14.402344 31.808594 C 14.382812 31.726562 14.347656 31.632812 14.441406 31.597656 C 14.53125 31.5625 14.554688 31.667969 14.589844 31.730469 C 14.773438 32.066406 14.863281 32.4375 14.984375 32.792969 C 15.246094 33.554688 15.4375 34.324219 15.285156 35.144531 C 15.113281 36.054688 14.714844 36.820312 13.957031 37.375 C 13.78125 37.503906 13.59375 37.597656 13.355469 37.59375 C 13.371094 37.558594 13.375 37.535156 13.386719 37.527344 Z M 6.246094 6.070312 C 6.351562 5.503906 6.597656 5.011719 6.953125 4.566406 C 6.996094 4.515625 7.007812 4.425781 7.101562 4.472656 C 7.191406 4.519531 7.144531 4.589844 7.113281 4.648438 C 6.988281 4.902344 6.871094 5.164062 6.800781 5.4375 C 6.632812 6.105469 6.578125 6.789062 6.59375 7.480469 C 6.601562 7.949219 6.578125 8.417969 6.679688 8.882812 C 6.714844 9.046875 6.761719 9.210938 6.804688 9.371094 C 6.816406 9.425781 6.851562 9.488281 6.785156 9.515625 C 6.707031 9.550781 6.6875 9.476562 6.65625 9.425781 C 6.644531 9.410156 6.636719 9.390625 6.628906 9.371094 C 6.339844 8.671875 6.132812 7.953125 6.136719 7.183594 C 6.132812 6.808594 6.179688 6.441406 6.246094 6.070312 Z M 6.84375 32.417969 C 6.957031 32.320312 7.070312 32.222656 7.191406 32.132812 C 7.769531 31.703125 8.160156 31.125 8.460938 30.484375 C 8.597656 30.191406 8.707031 29.886719 8.902344 29.621094 C 8.929688 29.578125 8.957031 29.507812 9.023438 29.542969 C 9.085938 29.570312 9.066406 29.640625 9.042969 29.683594 C 8.878906 29.972656 8.863281 30.304688 8.765625 30.613281 C 8.585938 31.164062 8.347656 31.683594 7.835938 32.007812 C 7.527344 32.207031 7.175781 32.328125 6.894531 32.566406 C 6.867188 32.589844 6.835938 32.609375 6.804688 32.578125 C 6.785156 32.5625 6.773438 32.539062 6.757812 32.515625 C 6.789062 32.476562 6.8125 32.441406 6.84375 32.417969 Z M 1.800781 25.183594 C 1.800781 25.359375 1.816406 25.539062 1.761719 25.710938 C 1.738281 25.785156 1.691406 25.851562 1.613281 25.851562 C 1.539062 25.851562 1.535156 25.765625 1.519531 25.710938 C 1.472656 25.519531 1.441406 25.324219 1.464844 25.125 C 1.53125 24.613281 1.542969 24.097656 1.503906 23.585938 C 1.5 23.523438 1.480469 23.449219 1.5625 23.433594 C 1.65625 23.421875 1.65625 23.507812 1.679688 23.570312 C 1.816406 23.976562 1.8125 24.398438 1.800781 24.816406 C 1.800781 24.941406 1.804688 25.0625 1.800781 25.183594 Z M 13.742188 29.628906 C 13.84375 29.617188 13.832031 29.742188 13.855469 29.8125 C 13.925781 30.011719 13.996094 30.207031 14.070312 30.402344 C 14.140625 30.59375 14.21875 30.78125 14.289062 30.96875 C 14.304688 31.015625 14.3125 31.066406 14.269531 31.101562 C 14.222656 31.136719 14.195312 31.09375 14.171875 31.066406 C 13.894531 30.703125 13.703125 30.308594 13.683594 29.824219 C 13.707031 29.769531 13.636719 29.644531 13.742188 29.628906 Z M 13.742188 29.628906 " fill-opacity="1" fill-rule="nonzero"/></g></g></g></g></g></g></g></g><g clip-path="url(#2cd6035480)"><path fill="#ff914d" d="M 70.46875 49.972656 C 70.972656 50.09375 71.480469 50.195312 71.992188 50.285156 L 71.792969 45.792969 C 71.75 44.824219 72.152344 43.890625 72.882812 43.253906 C 73.707031 42.53125 74.253906 41.285156 74.253906 39.871094 L 74.253906 30.757812 L 73.285156 30.757812 L 73.285156 40.410156 L 72.554688 40.410156 L 72.554688 30.757812 L 71.585938 30.757812 L 71.585938 40.410156 L 70.859375 40.410156 L 70.859375 30.757812 L 69.890625 30.757812 L 69.890625 40.410156 L 69.164062 40.410156 L 69.164062 30.757812 L 68.195312 30.757812 L 68.195312 39.871094 C 68.195312 41.285156 68.742188 42.53125 69.566406 43.253906 C 70.296875 43.890625 70.699219 44.824219 70.65625 45.792969 L 70.46875 49.972656 " fill-opacity="1" fill-rule="nonzero"/></g><g clip-path="url(#36bc3b3e33)"><path fill="#ff914d" d="M 78.867188 50.382812 C 79.386719 50.3125 79.898438 50.222656 80.402344 50.113281 L 80.214844 45.972656 C 80.167969 44.910156 80.675781 43.90625 81.539062 43.28125 C 82.597656 42.519531 83.304688 41.132812 83.304688 39.550781 C 83.304688 34.675781 81.15625 30.757812 79.640625 30.757812 C 78.125 30.757812 75.976562 34.675781 75.976562 39.550781 C 75.976562 41.132812 76.683594 42.519531 77.742188 43.28125 C 78.605469 43.90625 79.113281 44.910156 79.066406 45.972656 L 78.867188 50.382812 " fill-opacity="1" fill-rule="nonzero"/></g><path fill="#ff914d" d="M 74.53125 17.09375 C 74.53125 17.09375 76.257812 15.464844 75.421875 10.429688 C 74.753906 6.425781 74.53125 3.757812 77.832031 2.601562 C 75.238281 2.796875 74.394531 5.015625 74.148438 5.976562 C 73.140625 6.046875 72.15625 6.1875 71.191406 6.386719 C 70.253906 10.304688 74.796875 12.636719 74.53125 17.09375 " fill-opacity="1" fill-rule="nonzero"/><path fill="#ff914d" d="M 67.339844 5.652344 C 67.410156 5.597656 67.457031 5.570312 67.457031 5.570312 C 67.457031 5.570312 67.40625 5.59375 67.339844 5.652344 " fill-opacity="1" fill-rule="nonzero"/><g clip-path="url(#de81695c5a)"><path fill="#ff914d" d="M 89.765625 20.84375 C 90.042969 19.355469 88.6875 17.878906 88.460938 16.753906 C 88.066406 14.820312 89.085938 14.355469 89.085938 14.355469 C 89.085938 14.355469 88.285156 15.042969 89.601562 16.78125 C 90.625 18.132812 90.859375 19.355469 89.765625 20.84375 Z M 61.464844 21.871094 C 60.046875 20.6875 59.980469 19.441406 60.65625 17.882812 C 61.519531 15.882812 60.574219 15.40625 60.574219 15.40625 C 60.574219 15.40625 61.675781 15.617188 61.757812 17.585938 C 61.800781 18.734375 60.839844 20.492188 61.464844 21.871094 Z M 80.777344 6.488281 C 80.726562 6.015625 80.816406 5.375 80.804688 4.425781 C 80.757812 1.621094 79.015625 1.636719 79.015625 1.636719 C 79.015625 1.636719 80.121094 1.820312 80.25 3.789062 C 80.324219 4.9375 79.40625 6.714844 80.066406 8.078125 C 79.292969 7.46875 78.90625 6.828125 78.808594 6.128906 C 78.097656 6.03125 77.371094 5.964844 76.636719 5.9375 C 76.765625 6.695312 77.128906 7.574219 77.886719 8.566406 C 79.425781 10.578125 82.3125 15.3125 78.394531 21.46875 C 78.394531 21.46875 85.972656 14.363281 81.171875 8.878906 C 81.28125 8.921875 85.007812 10.324219 85.007812 15.617188 C 85.011719 21.128906 83.226562 23.144531 84.332031 26.808594 C 84.332031 26.808594 86.945312 20.308594 86.289062 16.804688 C 90.332031 22.460938 89.039062 28.207031 87.171875 31.371094 C 86.652344 30.570312 86.050781 29.828125 85.371094 29.148438 C 84.121094 27.898438 82.667969 26.917969 81.046875 26.234375 C 79.367188 25.523438 77.585938 25.164062 75.75 25.164062 C 73.914062 25.164062 72.132812 25.523438 70.457031 26.234375 C 68.835938 26.917969 67.378906 27.898438 66.132812 29.148438 C 65.371094 29.910156 64.707031 30.75 64.152344 31.652344 C 61.695312 25.648438 61.925781 20.085938 65.839844 13.554688 C 65.402344 17.042969 67.785156 18.976562 67.785156 18.976562 C 71.324219 16.890625 65.679688 9.566406 71.9375 4.632812 C 70.503906 5.253906 69.53125 6.324219 69.050781 6.941406 C 68.410156 7.144531 67.78125 7.375 67.164062 7.628906 C 67.207031 7.761719 67.253906 7.898438 67.3125 8.046875 C 67.945312 9.621094 67.851562 10.863281 66.40625 12.011719 C 67.0625 10.648438 66.144531 8.867188 66.21875 7.722656 C 66.34375 5.816406 67.386719 5.582031 67.453125 5.570312 C 65.878906 5.808594 65.660156 7.601562 65.636719 8.335938 C 58.382812 12.023438 53.410156 19.5625 53.410156 28.257812 C 53.410156 35.695312 57.042969 42.28125 62.632812 46.34375 C 63.042969 46.296875 63.179688 45.996094 62.640625 45.179688 C 61.085938 42.808594 57.902344 41.316406 58.226562 36.5 C 58.226562 36.5 58.8125 38.25 60.085938 38.488281 C 61.578125 38.769531 62.242188 36.984375 60.75 34.273438 C 57.246094 27.902344 61.289062 23.792969 61.289062 23.792969 C 61.289062 23.792969 60.050781 27.882812 63.277344 32.410156 C 63.367188 32.535156 63.460938 32.664062 63.558594 32.792969 C 63.449219 33.019531 63.34375 33.25 63.242188 33.484375 C 62.535156 35.160156 62.175781 36.9375 62.175781 38.769531 C 62.175781 41.402344 62.933594 43.953125 64.359375 46.152344 C 64.917969 47.011719 65.566406 47.796875 66.292969 48.503906 C 67.4375 49.039062 68.632812 49.480469 69.871094 49.816406 C 65.925781 47.710938 63.238281 43.554688 63.238281 38.769531 C 63.238281 31.855469 68.839844 26.253906 75.75 26.253906 C 82.664062 26.253906 88.265625 31.855469 88.265625 38.769531 C 88.265625 43.554688 85.578125 47.710938 81.628906 49.816406 C 82.871094 49.480469 84.066406 49.039062 85.214844 48.503906 C 85.847656 47.882812 86.429688 47.199219 86.9375 46.457031 C 88.5 44.191406 89.324219 41.53125 89.324219 38.769531 C 89.324219 36.9375 88.96875 35.160156 88.257812 33.484375 C 88.160156 33.25 88.054688 33.019531 87.941406 32.792969 C 88.039062 32.664062 88.136719 32.535156 88.222656 32.410156 C 91.453125 27.882812 90.214844 23.792969 90.214844 23.792969 C 90.214844 23.792969 94.253906 27.902344 90.753906 34.273438 C 89.261719 36.984375 89.925781 38.769531 91.414062 38.488281 C 92.691406 38.25 93.277344 36.5 93.277344 36.5 C 93.601562 41.316406 90.417969 42.808594 88.863281 45.179688 C 88.324219 45.996094 88.460938 46.296875 88.871094 46.34375 C 94.457031 42.28125 98.089844 35.695312 98.089844 28.257812 C 98.089844 17.648438 90.695312 8.765625 80.777344 6.488281 " fill-opacity="1" fill-rule="nonzero"/></g><g transform="matrix(1, 0, 0, 1, 38, 22)"><g clip-path="url(#d91d61c953)"><g fill="#0097b2" fill-opacity="1"><g transform="translate(1.568752, 9.453081)"><g><path d="M 0.890625 0 L 0.890625 -5.5 L 0.078125 -5.5 L 0.078125 -6.8125 L 3.0625 -6.8125 L 3.0625 -5.5 L 2.25 -5.5 L 2.25 0 Z M 0.890625 0 "/></g></g></g><g fill="#0097b2" fill-opacity="1"><g transform="translate(4.706894, 9.453081)"><g><path d="M 0.234375 0 L 0.234375 -6.8125 L 1.546875 -6.8125 L 1.546875 0 Z M 0.234375 0 "/></g></g></g><g clip-path="url(#481154d838)"><g fill="#0097b2" fill-opacity="1"><g transform="translate(6.505776, 9.453081)"><g><path d="M 0.296875 0 L 0.296875 -6.8125 L 3.03125 -6.8125 L 3.03125 -5.484375 L 1.6875 -5.484375 L 1.6875 -4.171875 L 2.96875 -4.171875 L 2.96875 -2.890625 L 1.6875 -2.890625 L 1.6875 -1.328125 L 3.109375 -1.328125 L 3.109375 0 Z M 1.03125 1.609375 L 1.03125 0.453125 L 2.421875 0.453125 L 2.421875 1.609375 Z M -0.046875 -7.1875 L 0.875 -8.484375 L 2.46875 -8.484375 L 3.390625 -7.1875 L 2 -7.1875 L 1.671875 -8.03125 L 1.34375 -7.1875 Z M -0.046875 -7.1875 "/></g></g></g></g><g fill="#0097b2" fill-opacity="1"><g transform="translate(9.770712, 9.453081)"><g><path d="M 0.296875 0 L 0.296875 -6.8125 L 2.375 -6.8125 L 2.953125 -2.65625 L 3.515625 -6.8125 L 5.609375 -6.8125 L 5.609375 0 L 4.359375 0 L 4.359375 -4.90625 L 3.578125 0 L 2.359375 0 L 1.53125 -4.90625 L 1.53125 0 Z M 0.296875 0 "/></g></g></g><g fill="#0097b2" fill-opacity="1"><g transform="translate(15.682466, 9.453081)"><g/></g></g><g clip-path="url(#1a570e8cbf)"><g fill="#0097b2" fill-opacity="1"><g transform="translate(17.53682, 9.453081)"><g><path d="M 0.125 0 L 0.78125 -6.8125 L 3.078125 -6.8125 L 3.734375 0 L 2.4375 0 L 2.34375 -1.09375 L 1.515625 -1.09375 L 1.4375 0 Z M 1.625 -2.1875 L 2.234375 -2.1875 L 1.9375 -5.640625 L 1.875 -5.640625 Z M 1.921875 -7.15625 C 1.453125 -7.15625 1.082031 -7.253906 0.8125 -7.453125 C 0.539062 -7.648438 0.40625 -7.953125 0.40625 -8.359375 C 0.40625 -8.398438 0.410156 -8.457031 0.421875 -8.53125 L 1.40625 -8.515625 C 1.40625 -8.367188 1.441406 -8.257812 1.515625 -8.1875 C 1.597656 -8.113281 1.738281 -8.078125 1.9375 -8.078125 C 2.125 -8.078125 2.253906 -8.113281 2.328125 -8.1875 C 2.410156 -8.257812 2.453125 -8.367188 2.453125 -8.515625 L 3.453125 -8.53125 L 3.453125 -8.390625 C 3.453125 -7.972656 3.316406 -7.660156 3.046875 -7.453125 C 2.773438 -7.253906 2.398438 -7.15625 1.921875 -7.15625 Z M 1.921875 -7.15625 "/></g></g></g></g><g fill="#0097b2" fill-opacity="1"><g transform="translate(21.380253, 9.453081)"><g><path d="M 0.296875 0 L 0.296875 -6.8125 L 1.703125 -6.8125 L 2.328125 -3.546875 L 2.328125 -6.8125 L 3.640625 -6.8125 L 3.640625 0 L 2.3125 0 L 1.625 -3.40625 L 1.625 0 Z M 0.296875 0 "/></g></g></g><g fill="#0097b2" fill-opacity="1"><g transform="translate(25.326709, 9.453081)"><g/></g></g><g fill="#0097b2" fill-opacity="1"><g transform="translate(27.181063, 9.453081)"><g><path d="M 0.921875 0 L 0.09375 -6.8125 L 1.390625 -6.8125 L 1.890625 -2.171875 L 2.328125 -6.8125 L 3.625 -6.8125 L 2.78125 0 Z M 0.921875 0 "/></g></g></g><g fill="#0097b2" fill-opacity="1"><g transform="translate(30.897702, 9.453081)"><g><path d="M 0.125 0 L 0.78125 -6.8125 L 3.078125 -6.8125 L 3.734375 0 L 2.4375 0 L 2.34375 -1.09375 L 1.515625 -1.09375 L 1.4375 0 Z M 1.625 -2.1875 L 2.234375 -2.1875 L 1.9375 -5.640625 L 1.875 -5.640625 Z M 1.234375 1.53125 L 1.234375 0.375 L 2.625 0.375 L 2.625 1.53125 Z M 1.921875 -7.15625 C 1.441406 -7.15625 1.066406 -7.242188 0.796875 -7.421875 C 0.535156 -7.597656 0.40625 -7.875 0.40625 -8.25 C 0.40625 -8.28125 0.410156 -8.332031 0.421875 -8.40625 L 1.40625 -8.40625 C 1.40625 -8.238281 1.441406 -8.113281 1.515625 -8.03125 C 1.597656 -7.957031 1.734375 -7.921875 1.921875 -7.921875 C 2.117188 -7.921875 2.253906 -7.957031 2.328125 -8.03125 C 2.398438 -8.113281 2.4375 -8.238281 2.4375 -8.40625 L 3.4375 -8.40625 C 3.4375 -8.363281 3.4375 -8.316406 3.4375 -8.265625 C 3.4375 -7.890625 3.300781 -7.609375 3.03125 -7.421875 C 2.769531 -7.242188 2.398438 -7.15625 1.921875 -7.15625 Z M 1.921875 -7.15625 "/></g></g></g><g fill="#0097b2" fill-opacity="1"><g transform="translate(34.741135, 9.453081)"><g><path d="M 0.890625 0 L 0.890625 -5.5 L 0.078125 -5.5 L 0.078125 -6.8125 L 3.0625 -6.8125 L 3.0625 -5.5 L 2.25 -5.5 L 2.25 0 Z M 0.890625 0 "/></g></g></g><g fill="#0097b2" fill-opacity="1"><g transform="translate(37.879277, 9.453081)"><g/></g></g><g fill="#0097b2" fill-opacity="1"><g transform="translate(39.733631, 9.453081)"><g><path d="M 0.296875 0 L 0.296875 -6.8125 L 1.703125 -6.8125 L 2.328125 -3.546875 L 2.328125 -6.8125 L 3.640625 -6.8125 L 3.640625 0 L 2.3125 0 L 1.625 -3.40625 L 1.625 0 Z M 0.296875 0 "/></g></g></g><g fill="#0097b2" fill-opacity="1"><g transform="translate(43.680087, 9.453081)"><g><path d="M 1.703125 0.0625 C 1.210938 0.0625 0.847656 -0.109375 0.609375 -0.453125 C 0.367188 -0.796875 0.25 -1.320312 0.25 -2.03125 L 0.25 -4.953125 C 0.25 -5.585938 0.382812 -6.066406 0.65625 -6.390625 C 0.9375 -6.710938 1.359375 -6.875 1.921875 -6.875 C 2.367188 -6.875 2.710938 -6.78125 2.953125 -6.59375 C 3.203125 -6.414062 3.375 -6.15625 3.46875 -5.8125 C 3.570312 -5.46875 3.625 -5.023438 3.625 -4.484375 L 2.296875 -4.484375 L 2.296875 -5.109375 C 2.296875 -5.265625 2.269531 -5.382812 2.21875 -5.46875 C 2.175781 -5.5625 2.097656 -5.609375 1.984375 -5.609375 C 1.722656 -5.609375 1.59375 -5.441406 1.59375 -5.109375 L 1.59375 -1.8125 C 1.59375 -1.601562 1.617188 -1.445312 1.671875 -1.34375 C 1.722656 -1.238281 1.816406 -1.1875 1.953125 -1.1875 C 2.078125 -1.1875 2.164062 -1.238281 2.21875 -1.34375 C 2.28125 -1.445312 2.3125 -1.601562 2.3125 -1.8125 L 2.3125 -2.78125 L 1.9375 -2.78125 L 1.9375 -3.96875 L 3.609375 -3.96875 L 3.609375 0 L 3.0625 0 L 2.828125 -0.578125 C 2.585938 -0.148438 2.210938 0.0625 1.703125 0.0625 Z M 1.703125 0.0625 "/></g></g></g><g fill="#0097b2" fill-opacity="1"><g transform="translate(47.52352, 9.453081)"><g><path d="M 1.921875 0.0625 C 1.367188 0.0625 0.953125 -0.101562 0.671875 -0.4375 C 0.390625 -0.769531 0.25 -1.242188 0.25 -1.859375 L 0.25 -5.09375 C 0.25 -5.675781 0.390625 -6.117188 0.671875 -6.421875 C 0.953125 -6.722656 1.367188 -6.875 1.921875 -6.875 C 2.472656 -6.875 2.890625 -6.722656 3.171875 -6.421875 C 3.460938 -6.117188 3.609375 -5.675781 3.609375 -5.09375 L 3.609375 -1.859375 C 3.609375 -1.242188 3.460938 -0.769531 3.171875 -0.4375 C 2.890625 -0.101562 2.472656 0.0625 1.921875 0.0625 Z M 1.921875 -1.1875 C 2.046875 -1.1875 2.128906 -1.238281 2.171875 -1.34375 C 2.210938 -1.445312 2.234375 -1.597656 2.234375 -1.796875 L 2.234375 -5.125 C 2.234375 -5.269531 2.210938 -5.382812 2.171875 -5.46875 C 2.128906 -5.5625 2.050781 -5.609375 1.9375 -5.609375 C 1.707031 -5.609375 1.59375 -5.441406 1.59375 -5.109375 L 1.59375 -1.78125 C 1.59375 -1.582031 1.613281 -1.429688 1.65625 -1.328125 C 1.707031 -1.234375 1.796875 -1.1875 1.921875 -1.1875 Z M 1.921875 -1.1875 "/></g></g></g><g fill="#0097b2" fill-opacity="1"><g transform="translate(51.374883, 9.453081)"><g><path d="M 0.296875 0 L 0.296875 -6.8125 L 1.703125 -6.8125 L 2.328125 -3.546875 L 2.328125 -6.8125 L 3.640625 -6.8125 L 3.640625 0 L 2.3125 0 L 1.625 -3.40625 L 1.625 0 Z M 0.296875 0 "/></g></g></g><g fill="#0097b2" fill-opacity="1"><g transform="translate(55.321338, 9.453081)"><g/></g></g><g fill="#0097b2" fill-opacity="1"><g transform="translate(57.175693, 9.453081)"><g><path d="M 0.296875 0 L 0.296875 -6.8125 L 1.703125 -6.8125 L 2.328125 -3.546875 L 2.328125 -6.8125 L 3.640625 -6.8125 L 3.640625 0 L 2.3125 0 L 1.625 -3.40625 L 1.625 0 Z M 0.296875 0 "/></g></g></g><g fill="#0097b2" fill-opacity="1"><g transform="translate(61.122148, 9.453081)"><g><path d="M 0.296875 0 L 0.296875 -6.8125 L 1.65625 -6.8125 L 1.65625 -4.375 L 2.296875 -4.375 L 2.296875 -6.8125 L 3.65625 -6.8125 L 3.65625 0 L 2.296875 0 L 2.296875 -3.09375 L 1.65625 -3.09375 L 1.65625 0 Z M 0.296875 0 "/></g></g></g><g clip-path="url(#ce40be2f8c)"><g fill="#0097b2" fill-opacity="1"><g transform="translate(65.076524, 9.453081)"><g><path d="M 0.125 0 L 0.78125 -6.8125 L 3.078125 -6.8125 L 3.734375 0 L 2.4375 0 L 2.34375 -1.09375 L 1.515625 -1.09375 L 1.4375 0 Z M 1.625 -2.1875 L 2.234375 -2.1875 L 1.9375 -5.640625 L 1.875 -5.640625 Z M 3.03125 -7.734375 L 3.484375 -8.53125 L 4.671875 -8.53125 L 3.9375 -7.734375 Z M 0.4375 -7.109375 L 1.34375 -8.09375 L 2.5 -8.09375 L 3.40625 -7.109375 L 2.296875 -7.109375 L 1.921875 -7.640625 L 1.546875 -7.109375 Z M 0.4375 -7.109375 "/></g></g></g></g><g fill="#0097b2" fill-opacity="1"><g transform="translate(68.919957, 9.453081)"><g><path d="M 0.890625 0 L 0.890625 -5.5 L 0.078125 -5.5 L 0.078125 -6.8125 L 3.0625 -6.8125 L 3.0625 -5.5 L 2.25 -5.5 L 2.25 0 Z M 0.890625 0 "/></g></g></g><g fill="#0097b2" fill-opacity="1"><g transform="translate(72.064246, 9.453081)"><g/></g></g><g fill="#0097b2" fill-opacity="1"><g transform="translate(25.98215, 20.01915)"><g><path d="M 0.890625 0 L 0.890625 -5.5 L 0.078125 -5.5 L 0.078125 -6.8125 L 3.0625 -6.8125 L 3.0625 -5.5 L 2.25 -5.5 L 2.25 0 Z M 0.890625 0 "/></g></g></g><g fill="#0097b2" fill-opacity="1"><g transform="translate(29.120292, 20.01915)"><g><path d="M 0.296875 0 L 0.296875 -6.8125 L 1.65625 -6.8125 L 1.65625 -4.375 L 2.296875 -4.375 L 2.296875 -6.8125 L 3.65625 -6.8125 L 3.65625 0 L 2.296875 0 L 2.296875 -3.09375 L 1.65625 -3.09375 L 1.65625 0 Z M 0.296875 0 "/></g></g></g><g fill="#0097b2" fill-opacity="1"><g transform="translate(33.074668, 20.01915)"><g><path d="M 0.296875 0 L 0.296875 -6.8125 L 3.03125 -6.8125 L 3.03125 -5.484375 L 1.6875 -5.484375 L 1.6875 -4.171875 L 2.96875 -4.171875 L 2.96875 -2.890625 L 1.6875 -2.890625 L 1.6875 -1.328125 L 3.109375 -1.328125 L 3.109375 0 Z M 2.78125 -7.734375 L 3.234375 -8.53125 L 4.421875 -8.53125 L 3.6875 -7.734375 Z M 0.1875 -7.109375 L 1.09375 -8.09375 L 2.25 -8.09375 L 3.15625 -7.109375 L 2.046875 -7.109375 L 1.671875 -7.640625 L 1.296875 -7.109375 Z M 0.1875 -7.109375 "/></g></g></g><g fill="#0097b2" fill-opacity="1"><g transform="translate(36.339604, 20.01915)"><g/></g></g><g fill="#0097b2" fill-opacity="1"><g transform="translate(38.193959, 20.01915)"><g><path d="M 1.703125 0.0625 C 1.210938 0.0625 0.847656 -0.109375 0.609375 -0.453125 C 0.367188 -0.796875 0.25 -1.320312 0.25 -2.03125 L 0.25 -4.953125 C 0.25 -5.585938 0.382812 -6.066406 0.65625 -6.390625 C 0.9375 -6.710938 1.359375 -6.875 1.921875 -6.875 C 2.367188 -6.875 2.710938 -6.78125 2.953125 -6.59375 C 3.203125 -6.414062 3.375 -6.15625 3.46875 -5.8125 C 3.570312 -5.46875 3.625 -5.023438 3.625 -4.484375 L 2.296875 -4.484375 L 2.296875 -5.109375 C 2.296875 -5.265625 2.269531 -5.382812 2.21875 -5.46875 C 2.175781 -5.5625 2.097656 -5.609375 1.984375 -5.609375 C 1.722656 -5.609375 1.59375 -5.441406 1.59375 -5.109375 L 1.59375 -1.8125 C 1.59375 -1.601562 1.617188 -1.445312 1.671875 -1.34375 C 1.722656 -1.238281 1.816406 -1.1875 1.953125 -1.1875 C 2.078125 -1.1875 2.164062 -1.238281 2.21875 -1.34375 C 2.28125 -1.445312 2.3125 -1.601562 2.3125 -1.8125 L 2.3125 -2.78125 L 1.9375 -2.78125 L 1.9375 -3.96875 L 3.609375 -3.96875 L 3.609375 0 L 3.0625 0 L 2.828125 -0.578125 C 2.585938 -0.148438 2.210938 0.0625 1.703125 0.0625 Z M 1.703125 0.0625 "/></g></g></g><g fill="#0097b2" fill-opacity="1"><g transform="translate(42.037391, 20.01915)"><g><path d="M 0.234375 0 L 0.234375 -6.8125 L 1.546875 -6.8125 L 1.546875 0 Z M 0.234375 0 "/></g></g></g><g fill="#0097b2" fill-opacity="1"><g transform="translate(43.836274, 20.01915)"><g><path d="M 3.75 -7.390625 C 3.75 -6.878906 3.59375 -6.515625 3.28125 -6.296875 C 3.5 -5.992188 3.609375 -5.59375 3.609375 -5.09375 L 3.609375 -1.859375 C 3.609375 -1.242188 3.460938 -0.769531 3.171875 -0.4375 C 2.890625 -0.101562 2.472656 0.0625 1.921875 0.0625 C 1.367188 0.0625 0.953125 -0.101562 0.671875 -0.4375 C 0.390625 -0.769531 0.25 -1.242188 0.25 -1.859375 L 0.25 -5.09375 C 0.25 -5.675781 0.390625 -6.117188 0.671875 -6.421875 C 0.960938 -6.722656 1.382812 -6.875 1.9375 -6.875 L 2.21875 -6.875 C 2.519531 -6.875 2.671875 -7.03125 2.671875 -7.34375 L 2.671875 -7.4375 L 3.75 -7.4375 Z M 2.234375 -5.125 C 2.234375 -5.269531 2.210938 -5.382812 2.171875 -5.46875 C 2.128906 -5.5625 2.050781 -5.609375 1.9375 -5.609375 C 1.707031 -5.609375 1.59375 -5.441406 1.59375 -5.109375 L 1.59375 -1.78125 C 1.59375 -1.582031 1.613281 -1.429688 1.65625 -1.328125 C 1.707031 -1.234375 1.796875 -1.1875 1.921875 -1.1875 C 2.046875 -1.1875 2.128906 -1.238281 2.171875 -1.34375 C 2.210938 -1.445312 2.234375 -1.597656 2.234375 -1.796875 Z M 1.015625 -7.46875 L 1.015625 -8.21875 L 2.859375 -8.875 L 2.859375 -7.765625 Z M 1.015625 -7.46875 "/></g></g></g><g fill="#0097b2" fill-opacity="1"><g transform="translate(47.719328, 20.01915)"><g><path d="M 0.234375 0 L 0.234375 -6.8125 L 1.546875 -6.8125 L 1.546875 0 Z M 0.234375 0 "/></g></g></g></g></g><g clip-path="url(#209580a1dd)"><g mask="url(#fdf00bf66b)"><g transform="matrix(1, 0, 0, 1, 96, 14)"><g clip-path="url(#df06026318)"><g clip-path="url(#fbb0d92f8d)"><path fill="#ff914d" d="M 8.746094 26.261719 C 9.199219 27.453125 8.792969 28.507812 8.277344 29.550781 C 7.8125 30.488281 7.328125 31.417969 6.964844 32.40625 C 6.609375 33.371094 6.425781 34.363281 6.613281 35.375 C 6.789062 36.300781 7.25 37.082031 8.101562 37.574219 C 8.125 37.585938 8.152344 37.59375 8.1875 37.613281 C 8.089844 37.664062 8.042969 37.625 7.996094 37.605469 C 7.289062 37.332031 6.597656 37.027344 5.980469 36.574219 C 5.886719 36.503906 5.800781 36.425781 5.699219 36.371094 C 4.863281 35.882812 4.15625 35.242188 3.546875 34.5 C 2.820312 33.621094 2.207031 32.675781 1.933594 31.550781 C 1.578125 30.074219 1.546875 28.59375 1.828125 27.101562 C 2.105469 25.640625 2.773438 24.347656 3.578125 23.121094 C 4.195312 22.179688 4.859375 21.269531 5.347656 20.25 C 5.863281 19.175781 6.03125 18.0625 5.769531 16.886719 C 5.695312 16.5625 5.613281 16.253906 5.457031 15.964844 C 5.359375 15.789062 5.402344 15.726562 5.597656 15.726562 C 5.855469 15.722656 6.066406 15.839844 6.269531 15.980469 C 7.304688 16.699219 7.769531 17.75 8.003906 18.9375 C 8.15625 19.6875 8.15625 20.441406 8.074219 21.199219 C 8.035156 21.5625 8 21.933594 8.035156 22.300781 C 8.054688 22.488281 8.109375 22.664062 8.203125 22.824219 C 8.355469 23.085938 8.605469 23.148438 8.839844 22.957031 C 9.101562 22.75 9.230469 22.464844 9.285156 22.132812 C 9.527344 20.6875 9.1875 19.296875 8.878906 17.90625 C 8.636719 16.828125 8.496094 15.742188 8.492188 14.640625 C 8.492188 13.144531 9.046875 11.832031 9.859375 10.609375 C 10.097656 10.253906 10.351562 9.90625 10.617188 9.566406 C 11.105469 8.941406 11.539062 8.28125 11.949219 7.601562 C 12.519531 6.660156 12.757812 5.652344 12.617188 4.546875 C 12.53125 3.867188 12.371094 3.21875 12.023438 2.628906 C 11.652344 2.003906 11.121094 1.558594 10.417969 1.339844 C 10.277344 1.292969 10.054688 1.269531 10.09375 1.066406 C 10.136719 0.871094 10.359375 0.933594 10.496094 0.949219 C 11.355469 1.042969 12.097656 1.40625 12.746094 1.972656 C 13.078125 2.269531 13.371094 2.601562 13.632812 2.960938 C 14.199219 3.742188 14.679688 4.566406 14.9375 5.503906 C 15.160156 6.320312 15.207031 7.148438 15.148438 7.992188 C 15.042969 9.597656 14.578125 11.121094 14.148438 12.65625 C 14 13.179688 13.839844 13.707031 13.820312 14.257812 C 13.800781 14.675781 13.84375 15.089844 14.050781 15.46875 C 14.277344 15.890625 14.65625 16.066406 15.117188 16.066406 C 15.535156 16.066406 15.761719 15.777344 15.921875 15.4375 C 16.210938 14.828125 16.484375 14.210938 16.441406 13.507812 C 16.417969 13.089844 16.347656 12.683594 16.230469 12.285156 C 16.214844 12.234375 16.160156 12.179688 16.214844 12.136719 C 16.261719 12.097656 16.320312 12.125 16.371094 12.148438 C 16.75 12.304688 16.996094 12.601562 17.199219 12.9375 C 17.992188 14.238281 18.207031 15.679688 18.175781 17.167969 C 18.132812 19.351562 17.601562 21.441406 16.921875 23.503906 C 16.625 24.410156 16.308594 25.308594 16.101562 26.242188 C 16.007812 26.671875 15.960938 27.101562 16.109375 27.535156 C 16.203125 27.820312 16.402344 27.988281 16.65625 28.109375 C 16.789062 28.167969 16.925781 28.152344 17.054688 28.089844 C 17.277344 27.984375 17.4375 27.8125 17.558594 27.597656 C 17.910156 26.949219 18.089844 26.238281 18.234375 25.527344 C 18.4375 24.515625 18.566406 23.496094 18.546875 22.460938 C 18.535156 21.949219 18.523438 21.4375 18.519531 20.925781 C 18.519531 20.839844 18.480469 20.734375 18.589844 20.691406 C 18.703125 20.644531 18.785156 20.714844 18.855469 20.796875 C 19.136719 21.109375 19.332031 21.480469 19.464844 21.875 C 19.78125 22.804688 19.9375 23.769531 19.957031 24.75 C 19.976562 25.785156 19.796875 26.796875 19.496094 27.789062 C 19.34375 28.300781 19.257812 28.824219 19.269531 29.359375 C 19.273438 29.585938 19.324219 29.792969 19.488281 29.960938 C 19.746094 30.222656 20.089844 30.21875 20.332031 29.941406 C 20.597656 29.632812 20.683594 29.242188 20.777344 28.859375 C 20.960938 28.136719 20.851562 27.4375 20.566406 26.761719 C 20.542969 26.710938 20.527344 26.660156 20.511719 26.609375 C 20.5 26.550781 20.515625 26.5 20.558594 26.460938 C 20.613281 26.414062 20.660156 26.449219 20.707031 26.476562 C 20.886719 26.578125 21.015625 26.734375 21.121094 26.894531 C 21.359375 27.242188 21.625 27.578125 21.808594 27.957031 C 22.269531 28.898438 22.359375 29.886719 22.199219 30.910156 C 21.894531 32.871094 20.914062 34.410156 19.335938 35.605469 C 18.105469 36.539062 16.753906 37.246094 15.3125 37.796875 C 15.15625 37.855469 14.988281 37.890625 14.824219 37.929688 C 14.773438 37.941406 14.699219 37.992188 14.671875 37.898438 C 14.652344 37.824219 14.734375 37.828125 14.773438 37.808594 C 15.523438 37.394531 16.246094 36.921875 16.894531 36.359375 C 17.792969 35.589844 18.449219 34.660156 18.671875 33.472656 C 18.773438 32.9375 18.699219 32.40625 18.519531 31.902344 C 18.304688 31.300781 18.066406 30.707031 17.675781 30.1875 C 17.667969 30.175781 17.664062 30.164062 17.65625 30.15625 C 17.570312 30.082031 17.507812 29.921875 17.390625 29.988281 C 17.3125 30.027344 17.398438 30.167969 17.421875 30.261719 C 17.496094 30.554688 17.589844 30.847656 17.636719 31.144531 C 17.71875 31.671875 17.449219 32.050781 17.035156 32.304688 C 16.714844 32.503906 16.359375 32.4375 16.035156 32.234375 C 15.59375 31.960938 15.253906 31.585938 14.953125 31.164062 C 14.125 29.988281 13.496094 28.714844 13.128906 27.328125 C 12.683594 25.644531 12.683594 23.949219 13.09375 22.253906 C 13.210938 21.769531 13.351562 21.296875 13.507812 20.824219 C 13.523438 20.78125 13.539062 20.734375 13.554688 20.6875 C 13.578125 20.609375 13.558594 20.535156 13.484375 20.492188 C 13.421875 20.453125 13.351562 20.472656 13.296875 20.527344 C 13.222656 20.601562 13.140625 20.679688 13.078125 20.765625 C 12.269531 21.878906 11.652344 23.082031 11.386719 24.441406 C 11.28125 24.988281 11.304688 25.539062 11.375 26.089844 C 11.421875 26.46875 11.472656 26.847656 11.546875 27.21875 C 11.628906 27.609375 11.738281 27.996094 11.839844 28.378906 C 11.972656 28.878906 11.960938 29.375 11.8125 29.871094 C 11.710938 30.207031 11.546875 30.492188 11.164062 30.550781 C 10.753906 30.613281 10.457031 30.414062 10.246094 30.097656 C 9.945312 29.640625 9.824219 29.132812 9.917969 28.582031 C 10.074219 27.699219 9.5625 26.683594 8.746094 26.261719 Z M 9.757812 12.296875 C 9.730469 12.304688 9.710938 12.304688 9.707031 12.316406 C 9.6875 12.347656 9.664062 12.382812 9.652344 12.421875 C 9.445312 13.25 9.273438 14.082031 9.234375 14.9375 C 9.195312 15.714844 9.34375 16.472656 9.535156 17.21875 C 9.683594 17.808594 9.90625 18.378906 9.925781 18.992188 C 9.929688 19.035156 9.933594 19.078125 9.988281 19.082031 C 10.066406 19.085938 10.046875 19.019531 10.046875 18.976562 C 10.046875 18.699219 10.03125 18.421875 10.015625 18.144531 C 9.980469 17.511719 9.878906 16.890625 9.738281 16.28125 C 9.480469 15.160156 9.464844 14.039062 9.667969 12.910156 C 9.703125 12.710938 9.78125 12.511719 9.757812 12.296875 Z M 3.175781 25.691406 C 3.0625 25.714844 3.050781 25.796875 3.019531 25.859375 C 2.570312 26.761719 2.367188 27.714844 2.421875 28.726562 C 2.453125 29.253906 2.585938 29.738281 2.855469 30.1875 C 2.882812 30.234375 2.898438 30.332031 2.972656 30.296875 C 3.03125 30.273438 3 30.195312 2.980469 30.136719 C 2.855469 29.691406 2.808594 29.234375 2.792969 28.773438 C 2.785156 28.449219 2.816406 28.132812 2.84375 27.8125 C 2.886719 27.382812 2.898438 26.949219 2.992188 26.523438 C 3.054688 26.25 3.113281 25.976562 3.175781 25.691406 Z M 8.226562 28.089844 C 8.113281 28.285156 8.035156 28.488281 7.910156 28.671875 C 7.527344 29.222656 7.15625 29.777344 6.875 30.390625 C 6.539062 31.121094 6.253906 31.867188 6.207031 32.683594 C 6.203125 32.742188 6.171875 32.832031 6.25 32.839844 C 6.339844 32.851562 6.316406 32.761719 6.320312 32.703125 C 6.339844 32.414062 6.414062 32.132812 6.515625 31.859375 C 6.875 30.890625 7.390625 30 7.910156 29.113281 C 8.097656 28.796875 8.207031 28.457031 8.226562 28.089844 Z M 13.597656 22.289062 C 13.476562 22.476562 13.464844 22.640625 13.441406 22.808594 C 13.339844 23.53125 13.191406 24.246094 13.277344 24.988281 C 13.371094 25.753906 13.464844 26.511719 13.84375 27.203125 C 13.863281 27.242188 13.855469 27.335938 13.9375 27.304688 C 14.015625 27.277344 13.949219 27.207031 13.933594 27.167969 C 13.742188 26.636719 13.621094 26.09375 13.566406 25.53125 C 13.484375 24.667969 13.460938 23.808594 13.5625 22.945312 C 13.589844 22.75 13.644531 22.546875 13.597656 22.289062 Z M 14.519531 6.707031 C 14.519531 6.839844 14.503906 6.957031 14.523438 7.0625 C 14.601562 7.515625 14.566406 7.957031 14.449219 8.394531 C 14.253906 9.128906 14.039062 9.855469 13.839844 10.589844 C 13.820312 10.652344 13.726562 10.761719 13.820312 10.792969 C 13.910156 10.824219 13.914062 10.683594 13.949219 10.617188 C 14.054688 10.398438 14.144531 10.171875 14.253906 9.953125 C 14.722656 9 14.78125 7.988281 14.675781 6.957031 C 14.664062 6.871094 14.636719 6.773438 14.519531 6.707031 Z M 21.429688 31.566406 C 21.355469 31.707031 21.285156 31.816406 21.238281 31.9375 C 21.035156 32.445312 20.820312 32.945312 20.511719 33.402344 C 20.335938 33.660156 20.191406 33.933594 19.972656 34.160156 C 19.949219 34.1875 19.902344 34.222656 19.941406 34.265625 C 19.976562 34.304688 20.015625 34.273438 20.050781 34.25 C 20.078125 34.230469 20.101562 34.207031 20.128906 34.183594 C 20.707031 33.621094 21.117188 32.953125 21.378906 32.191406 C 21.441406 32.003906 21.527344 31.808594 21.429688 31.566406 Z M 13.558594 20.019531 C 13.753906 19.890625 13.808594 19.722656 13.902344 19.589844 C 14.226562 19.148438 14.535156 18.695312 14.726562 18.179688 C 14.753906 18.105469 14.804688 18.035156 14.734375 17.933594 C 14.289062 18.589844 13.828125 19.21875 13.558594 20.019531 Z M 10.007812 20.539062 C 10.007812 20.644531 10.011719 20.746094 10.007812 20.847656 C 10.007812 20.902344 10.027344 20.953125 10.074219 20.960938 C 10.148438 20.96875 10.164062 20.898438 10.167969 20.851562 C 10.175781 20.707031 10.1875 20.5625 10.164062 20.421875 C 10.148438 20.339844 10.164062 20.171875 10.074219 20.179688 C 9.949219 20.195312 10.03125 20.347656 10.011719 20.4375 C 10.003906 20.472656 10.007812 20.507812 10.007812 20.539062 Z M 0.875 33.308594 C 1.078125 34.109375 1.542969 34.703125 2.265625 35.105469 C 2.511719 35.246094 2.742188 35.417969 2.976562 35.582031 C 3.578125 35.996094 4.160156 36.445312 4.796875 36.808594 C 4.84375 36.835938 4.90625 36.90625 4.953125 36.828125 C 4.996094 36.761719 4.914062 36.738281 4.875 36.710938 C 4.320312 36.285156 3.78125 35.832031 3.285156 35.335938 C 2.640625 34.699219 2.042969 34.015625 1.613281 33.207031 C 1.164062 32.359375 0.988281 31.4375 0.910156 30.492188 C 0.894531 30.25 0.859375 30.007812 0.832031 29.761719 C 0.824219 29.710938 0.804688 29.664062 0.75 29.664062 C 0.691406 29.664062 0.671875 29.710938 0.671875 29.761719 C 0.667969 29.804688 0.667969 29.84375 0.675781 29.886719 C 0.722656 30.261719 0.753906 30.644531 0.75 31.023438 C 0.746094 31.414062 0.75 31.800781 0.75 32.1875 C 0.652344 32.578125 0.777344 32.9375 0.875 33.308594 Z M 4.722656 16.90625 C 4.722656 16.84375 4.707031 16.765625 4.632812 16.769531 C 4.550781 16.769531 4.558594 16.851562 4.558594 16.910156 C 4.5625 17.644531 4.34375 18.339844 4.15625 19.035156 C 4.003906 19.613281 3.660156 20.101562 3.410156 20.632812 C 3.203125 21.074219 3.039062 21.539062 2.710938 21.914062 C 2.378906 22.292969 2.109375 22.722656 1.742188 23.070312 C 1.695312 23.113281 1.625 23.160156 1.671875 23.242188 C 1.726562 23.332031 1.804688 23.28125 1.871094 23.257812 C 2.128906 23.171875 2.347656 23.023438 2.515625 22.8125 C 2.726562 22.554688 2.957031 22.3125 3.1875 22.070312 C 3.371094 21.878906 3.539062 21.671875 3.675781 21.445312 C 4.414062 20.203125 4.664062 18.835938 4.722656 17.417969 C 4.722656 17.246094 4.722656 17.078125 4.722656 16.90625 Z M 9.117188 37.527344 C 8.695312 37.289062 8.484375 36.882812 8.261719 36.480469 C 7.941406 35.898438 7.742188 35.273438 7.722656 34.605469 C 7.691406 33.652344 7.875 32.726562 8.101562 31.808594 C 8.121094 31.726562 8.15625 31.632812 8.0625 31.597656 C 7.972656 31.5625 7.949219 31.667969 7.914062 31.730469 C 7.730469 32.066406 7.640625 32.4375 7.519531 32.792969 C 7.257812 33.554688 7.066406 34.324219 7.21875 35.144531 C 7.390625 36.054688 7.792969 36.820312 8.546875 37.375 C 8.722656 37.503906 8.910156 37.597656 9.148438 37.59375 C 9.132812 37.558594 9.128906 37.535156 9.117188 37.527344 Z M 16.257812 6.070312 C 16.15625 5.503906 15.90625 5.011719 15.550781 4.566406 C 15.507812 4.515625 15.496094 4.425781 15.402344 4.472656 C 15.3125 4.519531 15.359375 4.589844 15.390625 4.648438 C 15.519531 4.902344 15.632812 5.164062 15.703125 5.4375 C 15.871094 6.105469 15.925781 6.789062 15.914062 7.480469 C 15.902344 7.949219 15.925781 8.417969 15.824219 8.882812 C 15.789062 9.046875 15.742188 9.210938 15.699219 9.371094 C 15.6875 9.425781 15.652344 9.488281 15.71875 9.515625 C 15.796875 9.550781 15.820312 9.476562 15.851562 9.425781 C 15.859375 9.410156 15.867188 9.390625 15.875 9.371094 C 16.164062 8.671875 16.371094 7.953125 16.367188 7.183594 C 16.371094 6.808594 16.324219 6.441406 16.257812 6.070312 Z M 15.660156 32.417969 C 15.546875 32.320312 15.433594 32.222656 15.3125 32.132812 C 14.734375 31.703125 14.34375 31.125 14.042969 30.484375 C 13.90625 30.191406 13.796875 29.886719 13.605469 29.621094 C 13.574219 29.578125 13.546875 29.507812 13.480469 29.542969 C 13.417969 29.570312 13.4375 29.640625 13.460938 29.683594 C 13.625 29.972656 13.640625 30.304688 13.738281 30.613281 C 13.917969 31.164062 14.15625 31.683594 14.667969 32.007812 C 14.976562 32.207031 15.328125 32.328125 15.609375 32.566406 C 15.636719 32.589844 15.667969 32.609375 15.703125 32.578125 C 15.71875 32.5625 15.730469 32.539062 15.746094 32.515625 C 15.714844 32.476562 15.691406 32.441406 15.660156 32.417969 Z M 20.703125 25.183594 C 20.703125 25.359375 20.6875 25.539062 20.742188 25.710938 C 20.765625 25.785156 20.816406 25.851562 20.894531 25.851562 C 20.964844 25.851562 20.96875 25.765625 20.984375 25.710938 C 21.03125 25.519531 21.0625 25.324219 21.039062 25.125 C 20.972656 24.613281 20.960938 24.097656 21 23.585938 C 21.003906 23.523438 21.023438 23.449219 20.941406 23.433594 C 20.847656 23.421875 20.847656 23.507812 20.824219 23.570312 C 20.691406 23.976562 20.691406 24.398438 20.703125 24.816406 C 20.703125 24.941406 20.703125 25.0625 20.703125 25.183594 Z M 8.761719 29.628906 C 8.660156 29.617188 8.671875 29.742188 8.648438 29.8125 C 8.578125 30.011719 8.507812 30.207031 8.433594 30.402344 C 8.363281 30.59375 8.289062 30.78125 8.214844 30.96875 C 8.199219 31.015625 8.191406 31.066406 8.234375 31.101562 C 8.28125 31.136719 8.3125 31.09375 8.335938 31.066406 C 8.609375 30.703125 8.800781 30.308594 8.820312 29.824219 C 8.796875 29.769531 8.867188 29.644531 8.761719 29.628906 Z M 8.761719 29.628906 " fill-opacity="1" fill-rule="nonzero"/></g></g></g></g></g></svg>